<mxfile host="app.diagrams.net" agent="Mozilla/5.0 (X11; Linux x86_64) AppleWebKit/537.36 (KHTML, like Gecko) Chrome/127.0.0.0 Safari/537.36" version="24.7.6">
  <diagram name="Page-1" id="3tXmRKg1yeszMs2MlOJL">
    <mxGraphModel dx="676" dy="374" grid="1" gridSize="10" guides="1" tooltips="1" connect="1" arrows="1" fold="1" page="1" pageScale="1" pageWidth="850" pageHeight="1100" math="0" shadow="0">
      <root>
        <mxCell id="0" />
        <mxCell id="1" parent="0" />
        <mxCell id="b3ZSGYMgOhoO2ceLmxy--11" style="edgeStyle=orthogonalEdgeStyle;rounded=0;orthogonalLoop=1;jettySize=auto;html=1;exitX=1;exitY=0.5;exitDx=0;exitDy=0;entryX=0;entryY=0.5;entryDx=0;entryDy=0;fontFamily=Helvetica;" edge="1" parent="1" source="b3ZSGYMgOhoO2ceLmxy--1" target="b3ZSGYMgOhoO2ceLmxy--3">
          <mxGeometry relative="1" as="geometry" />
        </mxCell>
        <mxCell id="b3ZSGYMgOhoO2ceLmxy--1" value="Data acquisition&lt;br&gt;&lt;font color=&quot;#994c00&quot;&gt;[Web scraping]&lt;/font&gt;" style="rounded=1;whiteSpace=wrap;html=1;fontFamily=Helvetica;" vertex="1" parent="1">
          <mxGeometry x="245" y="191" width="120" height="39" as="geometry" />
        </mxCell>
        <mxCell id="b3ZSGYMgOhoO2ceLmxy--21" style="edgeStyle=orthogonalEdgeStyle;rounded=0;orthogonalLoop=1;jettySize=auto;html=1;exitX=1;exitY=0.5;exitDx=0;exitDy=0;entryX=0;entryY=0.75;entryDx=0;entryDy=0;" edge="1" parent="1" source="b3ZSGYMgOhoO2ceLmxy--4" target="b3ZSGYMgOhoO2ceLmxy--5">
          <mxGeometry relative="1" as="geometry" />
        </mxCell>
        <mxCell id="b3ZSGYMgOhoO2ceLmxy--4" value="Context&lt;br&gt;retrieval" style="rounded=1;whiteSpace=wrap;html=1;fontFamily=Helvetica;fillColor=#dae8fc;strokeColor=default;" vertex="1" parent="1">
          <mxGeometry x="440" y="241.5" width="97" height="39" as="geometry" />
        </mxCell>
        <mxCell id="b3ZSGYMgOhoO2ceLmxy--10" style="edgeStyle=orthogonalEdgeStyle;rounded=0;orthogonalLoop=1;jettySize=auto;html=1;exitX=0.5;exitY=0;exitDx=0;exitDy=0;entryX=0;entryY=0.5;entryDx=0;entryDy=0;fontFamily=Helvetica;" edge="1" parent="1" source="b3ZSGYMgOhoO2ceLmxy--1" target="b3ZSGYMgOhoO2ceLmxy--1">
          <mxGeometry relative="1" as="geometry">
            <Array as="points">
              <mxPoint x="305" y="171" />
              <mxPoint x="210" y="171" />
              <mxPoint x="210" y="211" />
            </Array>
          </mxGeometry>
        </mxCell>
        <mxCell id="b3ZSGYMgOhoO2ceLmxy--15" value="Every 24 hrs." style="text;html=1;align=center;verticalAlign=middle;resizable=0;points=[];autosize=1;strokeColor=none;fillColor=none;fontFamily=Helvetica;fontSize=10;" vertex="1" parent="1">
          <mxGeometry x="217" y="147" width="80" height="30" as="geometry" />
        </mxCell>
        <mxCell id="b3ZSGYMgOhoO2ceLmxy--17" style="edgeStyle=orthogonalEdgeStyle;rounded=0;orthogonalLoop=1;jettySize=auto;html=1;exitX=1;exitY=0.5;exitDx=0;exitDy=0;entryX=0;entryY=0.5;entryDx=0;entryDy=0;fontFamily=Helvetica;" edge="1" parent="1" source="b3ZSGYMgOhoO2ceLmxy--16" target="b3ZSGYMgOhoO2ceLmxy--4">
          <mxGeometry relative="1" as="geometry" />
        </mxCell>
        <mxCell id="b3ZSGYMgOhoO2ceLmxy--16" value="User prompt" style="rounded=1;whiteSpace=wrap;html=1;fontFamily=Helvetica;" vertex="1" parent="1">
          <mxGeometry x="310" y="243.25" width="87" height="35.5" as="geometry" />
        </mxCell>
        <mxCell id="b3ZSGYMgOhoO2ceLmxy--22" value="" style="group;fillColor=#f5f5f5;fontColor=#333333;strokeColor=none;" vertex="1" connectable="0" parent="1">
          <mxGeometry x="580" y="231" width="90" height="54" as="geometry" />
        </mxCell>
        <mxCell id="b3ZSGYMgOhoO2ceLmxy--5" value="Groq API" style="rounded=1;whiteSpace=wrap;html=1;fontFamily=Helvetica;" vertex="1" parent="b3ZSGYMgOhoO2ceLmxy--22">
          <mxGeometry width="90" height="40" as="geometry" />
        </mxCell>
        <mxCell id="b3ZSGYMgOhoO2ceLmxy--19" value="Llama 3.1" style="rounded=0;whiteSpace=wrap;html=1;fontFamily=Fira Code;fontSize=11;fontSource=https%3A%2F%2Ffonts.googleapis.com%2Fcss%3Ffamily%3DFira%2BCode;fillColor=#990000;fontColor=#ffffff;strokeColor=default;" vertex="1" parent="b3ZSGYMgOhoO2ceLmxy--22">
          <mxGeometry y="34" width="90" height="20" as="geometry" />
        </mxCell>
        <mxCell id="b3ZSGYMgOhoO2ceLmxy--24" value="Input endpoint" style="rounded=1;whiteSpace=wrap;html=1;fontFamily=Fira Code;fontSource=https%3A%2F%2Ffonts.googleapis.com%2Fcss%3Ffamily%3DFira%2BCode;fontSize=11;strokeColor=default;dashed=1;fillColor=#fad9d5;" vertex="1" parent="1">
          <mxGeometry x="210" y="243.25" width="90" height="35.5" as="geometry" />
        </mxCell>
        <mxCell id="b3ZSGYMgOhoO2ceLmxy--25" value="Generation endpoint" style="rounded=1;whiteSpace=wrap;html=1;fontFamily=Fira Code;fontSource=https%3A%2F%2Ffonts.googleapis.com%2Fcss%3Ffamily%3DFira%2BCode;fontSize=11;dashed=1;fillColor=#d5e8d4;strokeColor=default;" vertex="1" parent="1">
          <mxGeometry x="581.5" y="159.5" width="87" height="40.5" as="geometry" />
        </mxCell>
        <mxCell id="b3ZSGYMgOhoO2ceLmxy--23" style="edgeStyle=orthogonalEdgeStyle;rounded=0;orthogonalLoop=1;jettySize=auto;html=1;entryX=0.5;entryY=1;entryDx=0;entryDy=0;" edge="1" parent="1" source="b3ZSGYMgOhoO2ceLmxy--5" target="b3ZSGYMgOhoO2ceLmxy--25">
          <mxGeometry relative="1" as="geometry">
            <mxPoint x="625" y="180" as="targetPoint" />
          </mxGeometry>
        </mxCell>
        <mxCell id="b3ZSGYMgOhoO2ceLmxy--27" value="" style="group" vertex="1" connectable="0" parent="1">
          <mxGeometry x="441.25" y="122" width="94.5" height="78" as="geometry" />
        </mxCell>
        <mxCell id="b3ZSGYMgOhoO2ceLmxy--3" value="Database" style="rounded=1;whiteSpace=wrap;html=1;verticalAlign=top;fontFamily=Helvetica;strokeColor=default;dashed=1;" vertex="1" parent="b3ZSGYMgOhoO2ceLmxy--27">
          <mxGeometry width="94.5" height="78" as="geometry" />
        </mxCell>
        <mxCell id="b3ZSGYMgOhoO2ceLmxy--13" value="ChromaDB" style="shape=cylinder3;whiteSpace=wrap;html=1;boundedLbl=1;backgroundOutline=1;size=5.557692307692264;fillColor=#ffe6cc;strokeColor=default;fontFamily=Fira Code;fontSource=https%3A%2F%2Ffonts.googleapis.com%2Fcss%3Ffamily%3DFira%2BCode;fontSize=11;" vertex="1" parent="b3ZSGYMgOhoO2ceLmxy--27">
          <mxGeometry x="9.5" y="28" width="76" height="40" as="geometry" />
        </mxCell>
        <mxCell id="b3ZSGYMgOhoO2ceLmxy--28" style="edgeStyle=orthogonalEdgeStyle;rounded=0;orthogonalLoop=1;jettySize=auto;html=1;exitX=0.5;exitY=1;exitDx=0;exitDy=0;entryX=0.5;entryY=0;entryDx=0;entryDy=0;startArrow=classic;startFill=1;" edge="1" parent="1" source="b3ZSGYMgOhoO2ceLmxy--3" target="b3ZSGYMgOhoO2ceLmxy--4">
          <mxGeometry relative="1" as="geometry" />
        </mxCell>
      </root>
    </mxGraphModel>
  </diagram>
</mxfile>
